<svg width="24" height="26" viewBox="0 0 24 26" fill="none" xmlns="http://www.w3.org/2000/svg">
<path d="M1.5 12.7354V21.7354C1.5 22.5634 2.1735 23.2354 3 23.2354H10.5V12.7354H1.5Z" fill="#85439A"/>
<path d="M22.5 6.73553H17.754C18.0945 6.50303 18.387 6.27203 18.591 6.06503C19.8015 4.84853 19.8015 2.86853 18.591 1.65203C17.415 0.46703 15.366 0.47003 14.1915 1.65203C13.5405 2.30453 11.8155 4.96103 12.054 6.73553H11.946C12.183 4.96103 10.458 2.30453 9.8085 1.65203C8.6325 0.47003 6.5835 0.47003 5.409 1.65203C4.2 2.86853 4.2 4.84853 5.4075 6.06503C5.613 6.27203 5.9055 6.50303 6.246 6.73553H1.5C0.6735 6.73553 0 7.40903 0 8.23553V10.4855C0 10.8995 0.336 11.2355 0.75 11.2355H10.5V8.23553H13.5V11.2355H23.25C23.664 11.2355 24 10.8995 24 10.4855V8.23553C24 7.40903 23.328 6.73553 22.5 6.73553ZM10.4115 6.68603C10.4115 6.68603 10.3485 6.73553 10.134 6.73553C9.0975 6.73553 7.119 5.65853 6.4725 5.00753C5.844 4.37453 5.844 3.34253 6.4725 2.70953C6.777 2.40353 7.1805 2.23553 7.6095 2.23553C8.037 2.23553 8.4405 2.40353 8.745 2.70953C9.756 3.72653 10.761 6.32453 10.4115 6.68603ZM13.8645 6.73553C13.6515 6.73553 13.5885 6.68753 13.5885 6.68603C13.239 6.32453 14.244 3.72653 15.255 2.70953C15.8595 2.09903 16.917 2.09603 17.5275 2.70953C18.1575 3.34253 18.1575 4.37453 17.5275 5.00753C16.881 5.65853 14.9025 6.73553 13.8645 6.73553Z" fill="#85439A"/>
<path d="M13.5 12.7354V23.2354H21C21.828 23.2354 22.5 22.5634 22.5 21.7354V12.7354H13.5Z" fill="#85439A"/>
</svg>
